<?xml version="1.0" encoding="UTF-8" standalone="no"?>
<svg
   version="1.0"
   width="900.000000pt"
   height="762.000000pt"
   viewBox="0 0 900.000000 762.000000"
   preserveAspectRatio="xMidYMid meet"
   id="svg1"
   sodipodi:docname="logo3_1.1.svg"
   inkscape:export-filename="logo3_1.1.png"
   inkscape:export-xdpi="96"
   inkscape:export-ydpi="96"
   inkscape:version="1.4 (e7c3feb100, 2024-10-09)"
   xmlns:inkscape="http://www.inkscape.org/namespaces/inkscape"
   xmlns:sodipodi="http://sodipodi.sourceforge.net/DTD/sodipodi-0.dtd"
   xmlns="http://www.w3.org/2000/svg"
   xmlns:svg="http://www.w3.org/2000/svg">
  <defs
     id="defs1" />
  <sodipodi:namedview
     id="namedview1"
     pagecolor="#ffffff"
     bordercolor="#000000"
     borderopacity="0.25"
     inkscape:showpageshadow="2"
     inkscape:pageopacity="0.0"
     inkscape:pagecheckerboard="0"
     inkscape:deskcolor="#d1d1d1"
     inkscape:document-units="pt"
     inkscape:zoom="0.80314961"
     inkscape:cx="599.51471"
     inkscape:cy="508"
     inkscape:window-width="1920"
     inkscape:window-height="1017"
     inkscape:window-x="0"
     inkscape:window-y="0"
     inkscape:window-maximized="1"
     inkscape:current-layer="g1" />
  <metadata
     id="metadata1">
Created by potrace 1.10, written by Peter Selinger 2001-2011
</metadata>
  <g
     transform="translate(0.000000,762.000000) scale(0.100000,-0.100000)"
     fill="#000000"
     stroke="none"
     id="g1"
     style="fill:#457543;fill-opacity:1">
    <path
       d="M4970 7329 c-25 -5 -94 -13 -155 -18 -135 -12 -286 -26 -465 -46 -74 -8 -209 -21 -300 -30 -91 -9 -223 -22 -295 -30 -71 -8 -209 -21 -305 -30 -360 -32 -496 -46 -540 -56 -46 -10 -65 -19 -275 -119 -104 -50 -184 -87 -395 -182 -57 -26 -157 -71 -240 -110 -36 -16 -80 -36 -97 -44 -18 -8 -48 -21 -65 -28 -18 -8 -62 -28 -98 -44 -36 -16 -91 -39 -122 -52 -52 -21 -106 -73 -605 -572 -301 -301 -557 -564 -569 -584 -13 -20 -25 -60 -29 -88 -3 -28 -12 -80 -19 -116 -8 -36 -22 -110 -31 -165 -9 -55 -23 -129 -30 -165 -8 -36 -21 -105 -30 -155 -9 -49 -23 -119 -30 -155 -7 -36 -21 -103 -30 -150 -9 -47 -22 -116 -30 -155 -34 -167 -37 -196 -24 -229 16 -38 147 -209 399 -521 27 -33 87 -109 135 -170 47 -60 94 -119 104 -130 9 -11 55 -69 101 -129 47 -59 123 -157 170 -216 47 -60 121 -154 164 -210 43 -55 93 -109 110 -118 28 -15 101 -17 807 -22 l776 -5 35 -27 c20 -15 42 -33 50 -40 7 -7 42 -37 78 -67 36 -30 70 -60 75 -66 6 -6 170 -148 365 -315 195 -167 357 -307 360 -311 3 -3 34 -31 70 -60 65 -54 93 -78 153 -133 131 -117 270 -226 291 -226 14 0 89 49 197 131 96 73 181 134 190 136 14 4 17 -9 21 -92 5 -96 5 -97 44 -136 32 -33 135 -114 378 -299 157 -119 246 -187 272 -209 17 -14 40 -33 50 -41 67 -53 312 -248 329 -262 11 -9 70 -55 130 -103 61 -47 130 -103 155 -124 25 -21 55 -43 66 -49 15 -8 140 -12 415 -12 217 0 399 0 405 0 26 0 22 35 -10 93 -31 58 -53 99 -171 322 -26 50 -63 119 -83 155 -19 36 -56 106 -82 155 -26 50 -64 122 -85 160 -21 39 -52 97 -70 130 -18 33 -47 85 -64 115 -18 30 -41 75 -51 98 -31 69 -26 75 235 257 47 33 124 88 171 123 47 34 87 62 89 62 3 0 40 26 84 58 44 31 118 84 165 117 48 33 109 76 136 95 27 19 99 69 160 110 61 41 186 127 277 190 l166 115 79 125 c42 69 84 139 92 155 8 17 35 62 60 100 25 39 50 79 56 90 6 11 18 32 28 47 9 15 64 104 122 198 58 94 113 183 122 198 9 15 23 37 30 49 7 12 51 84 98 160 82 133 85 140 85 198 0 33 -8 88 -18 123 -16 57 -23 86 -63 237 -7 28 -20 79 -30 115 -38 146 -43 168 -59 230 -9 36 -22 88 -30 115 -7 28 -19 70 -26 95 -6 25 -15 61 -19 80 -4 19 -24 98 -45 175 -20 77 -50 192 -67 255 -16 63 -33 131 -38 150 -7 34 -16 68 -45 175 -7 28 -21 78 -29 113 -9 34 -23 90 -32 125 -33 124 -43 163 -59 227 -50 192 -58 203 -158 237 -34 12 -127 45 -207 73 -80 28 -176 62 -215 75 -38 13 -115 40 -170 60 -55 20 -113 40 -130 45 -16 4 -55 18 -85 30 -30 12 -68 25 -85 30 -16 5 -55 18 -85 30 -30 12 -68 25 -85 30 -16 5 -55 18 -85 30 -30 11 -86 32 -125 45 -38 13 -115 40 -170 60 -55 20 -113 40 -130 45 -16 4 -55 18 -85 30 -30 11 -86 32 -125 45 -38 13 -115 40 -170 60 -55 20 -131 47 -170 60 -38 14 -115 41 -170 60 -55 20 -131 47 -170 60 -38 13 -115 40 -170 60 -267 96 -327 110 -405 94z m170 -374 c30 -7 100 -30 155 -50 55 -20 114 -40 130 -45 17 -4 55 -18 85 -30 30 -12 69 -25 85 -30 17 -5 55 -18 85 -30 30 -12 69 -25 85 -30 17 -5 55 -18 85 -30 30 -12 69 -25 85 -30 17 -5 55 -18 85 -30 30 -12 69 -25 85 -30 17 -5 95 -32 175 -60 80 -28 177 -62 215 -75 39 -14 115 -41 170 -60 55 -20 114 -40 130 -45 17 -5 95 -32 175 -60 80 -28 177 -62 215 -75 39 -14 115 -40 170 -60 55 -20 114 -40 130 -45 50 -15 308 -106 336 -119 32 -16 48 -41 58 -94 10 -48 49 -190 92 -337 23 -76 22 -85 -6 -98 -19 -9 -236 -12 -875 -12 l-849 0 -36 -31 c-19 -17 -35 -35 -35 -39 0 -5 -20 -43 -45 -84 -25 -42 -45 -79 -45 -81 0 -3 -17 -33 -38 -67 -21 -35 -55 -94 -76 -133 -21 -38 -50 -82 -64 -97 l-26 -28 -832 0 -833 0 -25 23 c-13 12 -39 48 -56 81 -18 32 -44 79 -59 105 -15 25 -30 53 -34 61 -5 8 -13 24 -20 35 -56 94 -67 117 -67 143 0 29 49 103 210 320 l65 87 550 3 550 2 85 -42 c71 -36 96 -43 155 -46 63 -3 77 0 134 30 50 25 73 45 101 86 118 173 45 395 -153 461 -34 12 -70 21 -82 21 -23 0 -111 -29 -135 -45 -102 -67 -108 -67 -786 -74 -518 -5 -614 -8 -629 -21 -10 -8 -69 -93 -133 -190 -149 -227 -152 -230 -190 -152 -13 26 -38 57 -56 69 l-33 21 -979 6 c-810 4 -979 8 -982 19 -3 14 67 115 124 179 17 19 55 53 85 76 49 37 99 63 314 162 39 18 106 49 150 70 44 21 115 54 158 74 42 20 150 72 240 115 331 161 328 160 443 181 60 11 129 20 154 20 25 0 110 7 190 15 200 21 413 42 625 60 99 9 230 23 290 31 61 8 128 14 150 14 22 0 101 7 175 15 360 39 331 38 400 20z m-1886 -1490 c16 -9 37 -25 45 -37 18 -25 67 -105 78 -128 4 -8 32 -58 63 -110 31 -52 59 -102 63 -110 4 -8 11 -22 17 -30 15 -22 155 -263 163 -280 4 -8 16 -28 27 -45 11 -16 23 -37 27 -45 15 -32 96 -166 115 -190 11 -14 34 -30 51 -37 24 -8 300 -12 1063 -12 l1031 -1 34 23 c18 12 38 31 44 42 12 23 84 150 102 180 7 11 15 27 19 35 4 8 43 75 86 147 55 93 85 134 101 138 12 3 379 4 815 3 l793 -3 19 -25 c11 -14 20 -34 20 -44 0 -11 6 -42 14 -70 8 -28 22 -80 31 -116 9 -36 22 -87 30 -115 7 -27 20 -77 29 -110 9 -33 24 -84 34 -113 27 -87 60 -82 -548 -82 -581 0 -516 -7 -645 65 -111 60 -229 40 -325 -55 -87 -87 -113 -201 -73 -314 25 -69 115 -150 190 -172 95 -28 152 -15 303 67 33 18 63 19 601 19 538 0 568 -1 590 -19 l23 -18 -60 -97 c-32 -53 -67 -109 -76 -124 -10 -15 -21 -34 -25 -42 -5 -9 -37 -62 -73 -119 -49 -78 -73 -107 -97 -118 -46 -19 -1845 -19 -1883 0 -13 7 -36 30 -51 52 -26 39 -155 264 -194 338 -41 78 57 71 -1150 77 -646 3 -1086 9 -1095 14 -24 16 -87 113 -136 211 -8 17 -23 44 -34 60 -11 17 -24 39 -29 50 -5 11 -21 37 -35 58 -14 21 -26 40 -26 43 0 3 -40 71 -88 152 -48 81 -91 154 -95 162 -4 8 -16 29 -26 45 -11 17 -29 47 -40 67 -40 73 -70 116 -93 132 -20 14 -134 16 -1118 16 -839 0 -1099 3 -1108 12 -27 27 -4 149 46 245 44 83 258 310 310 329 30 10 247 13 1077 13 914 1 1044 -1 1069 -14z m-537 -1020 c23 -5 62 -56 107 -140 15 -27 31 -57 36 -65 23 -38 100 -172 100 -175 0 -2 19 -36 43 -77 24 -40 46 -80 50 -88 4 -8 16 -28 27 -45 11 -16 24 -39 30 -50 5 -11 14 -27 20 -35 19 -29 130 -222 130 -226 0 -3 17 -27 37 -54 43 -58 76 -73 128 -59 25 7 52 7 86 0 107 -23 135 -52 229 -234 65 -127 93 -178 128 -232 6 -11 17 -29 22 -40 6 -11 19 -33 29 -50 11 -16 32 -52 46 -80 51 -92 75 -125 98 -130 12 -2 137 -6 277 -8 276 -3 279 -4 374 -65 37 -24 50 -27 126 -26 107 1 154 23 208 97 54 72 72 125 72 207 0 90 -34 165 -100 222 -113 98 -252 104 -374 16 -21 -15 -52 -28 -67 -28 -15 0 -40 -5 -56 -11 -48 -18 -163 -14 -213 8 -54 24 -108 82 -134 143 -10 25 -31 71 -47 103 -16 31 -29 64 -29 72 0 13 89 15 713 15 l713 0 26 -27 c25 -27 36 -44 95 -152 13 -25 33 -59 44 -76 10 -16 22 -37 26 -45 19 -36 83 -127 99 -140 15 -13 153 -16 953 -20 929 -5 936 -5 933 -25 -9 -52 -84 -116 -372 -318 -176 -123 -225 -157 -313 -220 -48 -34 -118 -83 -155 -109 -37 -26 -112 -78 -167 -117 -55 -39 -122 -85 -148 -103 -26 -18 -84 -59 -128 -90 -43 -32 -82 -58 -85 -58 -3 0 -31 -19 -62 -43 -31 -24 -77 -57 -102 -73 -218 -146 -250 -173 -250 -207 0 -13 16 -55 36 -93 20 -38 64 -123 99 -189 34 -66 83 -158 107 -205 93 -176 203 -387 224 -430 22 -45 22 -78 0 -62 -6 5 -56 43 -111 85 -130 99 -304 234 -331 255 -11 9 -36 28 -55 41 -19 13 -41 30 -49 38 -12 11 -45 37 -115 91 -72 56 -302 232 -323 247 -15 11 -50 38 -77 60 -92 74 -84 29 -85 483 0 387 -1 402 -19 402 -10 0 -74 -43 -142 -96 -68 -52 -177 -136 -243 -187 -65 -51 -131 -101 -146 -112 -52 -37 -105 -79 -130 -101 -14 -12 -43 -32 -66 -43 -53 -28 -67 -22 -174 70 -91 78 -392 341 -400 349 -3 3 -36 32 -75 65 -38 33 -72 62 -75 65 -3 3 -70 62 -149 130 -80 69 -178 154 -220 190 -245 213 -266 229 -307 239 -28 7 -279 11 -741 11 -384 0 -716 5 -738 10 -29 6 -52 22 -82 57 -24 26 -43 52 -43 58 0 5 28 51 63 101 184 268 186 270 236 297 71 39 107 35 207 -19 71 -39 95 -46 156 -51 94 -7 144 7 201 57 67 60 99 132 99 230 0 69 -3 85 -32 139 -54 101 -141 154 -255 154 -74 0 -130 -20 -183 -65 l-33 -28 -180 0 c-137 0 -187 -3 -208 -14 -15 -8 -57 -56 -92 -106 -35 -51 -91 -129 -124 -174 -33 -44 -70 -97 -82 -117 -12 -19 -31 -43 -41 -52 -18 -17 -20 -17 -39 0 -12 10 -68 81 -126 158 -58 77 -150 197 -204 266 -54 70 -109 141 -123 159 -14 19 -43 56 -66 84 -51 64 -65 102 -54 153 4 21 13 78 21 127 21 143 -20 130 441 136 471 6 1614 3 1645 -5z"
       id="path1"
       style="fill:#457543;fill-opacity:1" />
  </g>
</svg>
